<?xml version="1.0" encoding="UTF-8"?>
<svg version="1.1" xmlns="http://www.w3.org/2000/svg" width="100" height="100">
<path d="M0 0 C6.6062509 0.36034096 11.97648627 2.34619785 18 5 C17.125 12.875 17.125 12.875 16 14 C14.48071962 14.07179964 12.95832518 14.08392007 11.4375 14.0625 C10.61121094 14.05347656 9.78492187 14.04445313 8.93359375 14.03515625 C8.29550781 14.02355469 7.65742187 14.01195312 7 14 C6.81824219 14.56847656 6.63648437 15.13695312 6.44921875 15.72265625 C4.85915366 20.60701003 3.09540222 25.31029027 1 30 C1.82242188 29.814375 2.64484375 29.62875 3.4921875 29.4375 C7.48056244 28.92168246 10.11957448 28.85166725 14 30 C18.04337443 33.9323551 20.57200312 39.18810917 23.0612793 44.19067383 C24.08829911 46.25073977 24.08829911 46.25073977 26 49 C26.14221065 51.60245498 26.18802932 54.09117684 26.125 56.6875 C26.11597656 57.38939453 26.10695313 58.09128906 26.09765625 58.81445312 C26.07413704 60.54311525 26.03826713 62.27160145 26 64 C24.68 64 23.36 64 22 64 C22 71.92 22 79.84 22 88 C-8.36 88 -38.72 88 -70 88 C-70 80.08 -70 72.16 -70 64 C-71.32 64 -72.64 64 -74 64 C-75.76105881 53.09121902 -73.34900912 45.40536944 -67.55615234 36.10668945 C-64.59959766 32.0274948 -62.30945944 29.59383425 -57.265625 28.609375 C-52.78974837 28.20523465 -48.46358236 28.5771343 -44 29 C-43.34 28.67 -42.68 28.34 -42 28 C-36.47885323 27.57980653 -32.11037385 27.80983978 -27 30 C-24.00117189 29.78057355 -22.47605949 29.39823235 -20.16015625 27.4609375 C-17.53209163 25.68354841 -16.1346012 25.6834844 -13 25.8125 C-12.154375 25.83957031 -11.30875 25.86664062 -10.4375 25.89453125 C-9.2309375 25.94673828 -9.2309375 25.94673828 -8 26 C-6.68 26 -5.36 26 -4 26 C-3.1319092 24.08959948 -2.28098217 22.17139263 -1.4375 20.25 C-0.72400391 18.64898438 -0.72400391 18.64898438 0.00390625 17.015625 C1.00207027 13.99373236 1.24840413 12.86092612 0 10 C-1.47890069 8.26973898 -1.47890069 8.26973898 -3 7 C-1.125 1.125 -1.125 1.125 0 0 Z M4 6 C4.99 7.485 4.99 7.485 6 9 C9.08365871 9.2502157 9.08365871 9.2502157 12 9 C9.08235 7.0549 7.37462715 6.54723683 4 6 Z M-18.5 33 C-21.85901154 35.68720923 -23.78616121 35.44356198 -28 35 C-30.00405227 34.34561559 -32.00428677 33.67939174 -34 33 C-37.42783449 32.3144331 -39.2366388 32.51816208 -42.203125 34.390625 C-45.6367875 37.00566598 -48.83932357 39.74582357 -51.8125 42.875 C-53.97784271 44.97847578 -55.04702976 45.6718922 -58 46 C-56.59971159 41.54453688 -54.35550741 39.18343011 -51 36 C-50.67 35.34 -50.34 34.68 -50 34 C-54.06827419 33.35403451 -54.06827419 33.35403451 -58 34 C-60.58139987 36.67870319 -62.24410184 39.73982772 -64 43 C-64.928125 44.4540625 -64.928125 44.4540625 -65.875 45.9375 C-67.15961738 47.90107048 -67.15961738 47.90107048 -67 50 C-38.62 50 -10.24 50 19 50 C17.48809583 46.22023956 16.02637356 43.17842147 13.9375 39.75 C13.41027344 38.87859375 12.88304688 38.0071875 12.33984375 37.109375 C11.16812572 35.09554251 11.16812572 35.09554251 10 34 C8.33382885 33.95936168 6.66611905 33.957279 5 34 C5.639375 34.9075 6.27875 35.815 6.9375 36.75 C8.61428953 39.39221381 9.53689998 40.9898499 10 44 C8.35 44 6.7 44 5 44 C4.690625 42.9171875 4.690625 42.9171875 4.375 41.8125 C1.72597334 36.39403638 -3.48950473 33.13672266 -9 31 C-13.22917754 30.48062732 -15.12707753 30.30166202 -18.5 33 Z M-70 54 C-70 55.98 -70 57.96 -70 60 C-39.64 60 -9.28 60 22 60 C22 58.02 22 56.04 22 54 C-8.36 54 -38.72 54 -70 54 Z M-66 64 C-66 70.6 -66 77.2 -66 84 C-38.28 84 -10.56 84 18 84 C18 77.4 18 70.8 18 64 C-9.72 64 -37.44 64 -66 64 Z " fill="#000000" transform="translate(74,4)"/>
<path d="M0 0 C1.65 0 3.3 0 5 0 C5 1.32 5 2.64 5 4 C4.01 4.33 3.02 4.66 2 5 C1.34 4.67 0.68 4.34 0 4 C0 2.68 0 1.36 0 0 Z " fill="#000000" transform="translate(66,44)"/>
<path d="M0 0 C1.65 0 3.3 0 5 0 C5 1.32 5 2.64 5 4 C4.01 4.33 3.02 4.66 2 5 C1.34 4.67 0.68 4.34 0 4 C0 2.68 0 1.36 0 0 Z " fill="#000000" transform="translate(52,44)"/>
<path d="M0 0 C1.65 0 3.3 0 5 0 C5 1.32 5 2.64 5 4 C4.01 4.33 3.02 4.66 2 5 C1.34 4.67 0.68 4.34 0 4 C0 2.68 0 1.36 0 0 Z " fill="#000000" transform="translate(34,42)"/>
<path d="M0 0 C1.65 0 3.3 0 5 0 C5 1.32 5 2.64 5 4 C4.01 4.33 3.02 4.66 2 5 C1.34 4.67 0.68 4.34 0 4 C0 2.68 0 1.36 0 0 Z " fill="#000000" transform="translate(60,40)"/>
</svg>
